<svg style="height: 0; width: 0; position: absolute; top: -99999px; left: -99999px; visibility: hidden;">
    <svg id="svg-logo" viewBox="0 0 190 52" xmlns="http://www.w3.org/2000/svg">
        <path d="M50.1719 32.5898C50.1523 32.8515 49.9883 33 49.7305 32.9883C49.2305 32.9687 48.7305 32.9414 48.2305 32.9218C47.9609 32.9101 47.6875 32.8984 47.4141 32.8906C47.3555 32.8906 47.2969 32.8906 47.2383 32.8789C47.0156 32.8593 46.8438 32.6914 46.8594 32.4609C46.8672 32.3203 46.8633 32.1718 46.8672 32.0312C46.8867 31.7382 47.0469 31.5781 47.3359 31.5898C47.875 31.6093 48.418 31.6406 48.957 31.6718C49.2188 31.6797 49.4844 31.6797 49.7461 31.6992C49.8047 31.6992 49.8633 31.6992 49.9219 31.7187C50.082 31.7812 50.1758 31.8984 50.1797 32.0703C50.1836 32.1484 50.1836 32.2304 50.1836 32.3203H50.1719C50.1719 32.4101 50.1797 32.5 50.1719 32.5898ZM46.5156 29.3007C46.2812 29.4297 46.0742 29.3086 45.9805 29.1601C45.8789 28.9882 45.7891 28.8086 45.7148 28.6289C45.6406 28.4492 45.7266 28.2109 45.9219 28.1093C46.4531 27.8515 46.9805 27.5703 47.5117 27.3007C47.8906 27.1015 48.2695 26.8984 48.6484 26.6992C48.918 26.5586 49.1406 26.6289 49.2852 26.8984C49.3516 27.0195 49.4102 27.1406 49.4688 27.2617C49.5078 27.3398 49.5312 27.4218 49.5273 27.5C49.5234 27.6718 49.4492 27.7812 49.3008 27.8593C48.9766 28.0312 48.6562 28.1992 48.332 28.3593C47.7617 28.6601 47.1953 28.9492 46.625 29.25C46.5898 29.2695 46.5508 29.2812 46.5156 29.3007ZM45.1758 35C45.1641 35.0781 45.1562 35.1484 45.1289 35.2187C45.0898 35.3086 45.0391 35.3398 44.9375 35.3281C44.8984 35.3203 44.8555 35.3086 44.8164 35.3008C44.1094 35.1211 43.3945 34.9883 42.668 34.9101C42.0156 34.8398 41.3594 34.8281 40.707 34.8593C39.5547 34.9101 38.4297 35.1093 37.3242 35.4492C36.2656 35.7695 35.2539 36.1914 34.2695 36.6992C34.1836 36.7383 34.1016 36.789 34.0117 36.8203C33.6328 36.9804 33.2578 36.8789 33.0039 36.5508C32.9297 36.4609 32.8711 36.3711 32.8203 36.2617C32.625 35.8593 32.4258 35.4492 32.2266 35.0508C31.9883 34.5703 32.0938 33.9687 32.6016 33.6289C33.043 33.3281 33.4805 33.0195 33.9023 32.6992C34.4766 32.2617 35.0312 31.8007 35.5664 31.3086C35.9062 30.9882 36.2383 30.6718 36.5586 30.3281C37.3828 29.4609 38.1172 28.5117 38.7188 27.4687C38.8086 27.3203 38.8867 27.1718 38.9688 27.0195C38.9883 26.9804 39 26.9297 39.0469 26.8984C39.0938 26.9297 39.0898 26.9804 39.0977 27.0195C39.2969 27.9804 39.6289 28.8906 40.0117 29.789C40.3047 30.4687 40.6289 31.1406 41.0156 31.7695C41.0625 31.8515 41.1094 31.9218 41.1602 31.9882C41.3242 32.1992 41.5859 32.2617 41.7852 32.1211C42.0117 31.9687 42.0742 31.6914 41.9258 31.4609C41.2344 30.3711 40.7305 29.1914 40.3203 27.9687C40.1172 27.3711 39.9609 26.7617 39.8828 26.1406C39.8398 25.789 39.8281 25.4492 39.9219 25.1093C39.9492 25.0195 39.9805 24.9297 40.0352 24.8515C40.1016 24.7617 40.1797 24.7304 40.2852 24.7695C40.3555 24.8007 40.4141 24.8398 40.4727 24.8789C40.9102 25.2109 41.2852 25.6015 41.625 26.0312C42.2734 26.8203 42.8125 27.6914 43.2969 28.6015C43.8242 29.5703 44.2695 30.5898 44.625 31.6289C44.8516 32.3007 45.0391 32.9804 45.1406 33.6797C45.2031 34.1211 45.2344 34.5586 45.1758 35ZM43.4453 25.7812C43.75 25.3711 44.0586 24.9687 44.3672 24.5586C44.9062 23.8515 45.4453 23.1406 45.9844 22.4297C46.0039 22.4101 46.0234 22.3789 46.0469 22.3593C46.1758 22.2109 46.3789 22.1797 46.5391 22.289C46.6875 22.3906 46.8281 22.5 46.9609 22.6093C47.1094 22.7382 47.1328 22.9414 47.0312 23.1093C46.9648 23.2109 46.8906 23.3007 46.8203 23.3906C46.0352 24.4297 45.25 25.4609 44.4648 26.4882C44.4336 26.5312 44.4023 26.5703 44.3672 26.6093C44.2969 26.6797 44.207 26.7187 44.1016 26.7187C44.0078 26.7187 43.9297 26.6914 43.8594 26.6289C43.7422 26.5507 43.625 26.4609 43.5117 26.3711C43.3125 26.1992 43.2852 25.9882 43.4453 25.7812ZM51.3359 0.691374C46.3633 0.691374 41.3945 0.718718 36.4258 0.660124C35.1758 0.648406 34.4453 1.12106 33.9258 2.21091C31.6445 7.0195 29.3281 11.8086 27.0234 16.6093C26.9297 16.8086 26.9023 17.1093 26.6328 17.1289C26.3281 17.1484 26.3359 16.8203 26.2461 16.6289C23.9258 11.789 21.5859 6.94919 19.3086 2.08981C18.832 1.05856 18.1641 0.671843 17.0664 0.671843C12.0703 0.699187 7.07422 0.691374 2.07812 0.691374C0.40625 0.691374 0 1.08981 0 2.73825C0 18.3281 0 33.9297 0 49.5195C0 51.1718 0.410156 51.5703 2.07812 51.5703C5.23828 51.5703 8.40234 51.5703 11.5664 51.5703C11.582 51.3906 11.5938 51.2695 11.5977 51.2187C11.7266 50.0508 12.0898 48.3789 10.6953 47.7109C10.4414 47.6211 10.1719 47.6211 9.91797 47.7304C8.83203 48.2383 8.03516 49.0312 7.15234 49.7617C7.05078 49.8515 6.92578 49.9218 6.78906 49.9687C6.64062 50.0312 6.52344 49.9883 6.41406 49.8906C6.29297 49.7812 6.21484 49.6406 6.16797 49.4883C6.10547 49.289 5.99219 49.1289 5.82031 49.0117C5.58594 48.8515 5.46094 48.6211 5.37109 48.3593C5.3125 48.1992 5.25 48.039 5.1875 47.8789C4.4375 47.3008 4.53516 46.6406 4.92969 46.0195C5.0625 45.8086 5.22656 45.6015 5.40625 45.4101C7.01953 43.9609 8.54297 42.3711 9.08984 40.289C9.16406 40.0703 9.23438 39.8398 9.29688 39.6211C9.85156 37.5781 9.88281 35.3711 9.66016 33.1797C9.63281 32.9218 9.60156 32.6484 9.56641 32.3906C9.47656 31.4609 9.32812 30.5312 9.16406 29.6015C9.12109 29.3711 9.08203 29.1289 9.03906 28.8984C8.99609 28.6718 8.95312 28.4414 8.91016 28.1992C8.6875 26.8007 8.32422 25.4297 8.29297 23.9687C8.32812 23.6914 8.44141 23.4414 8.6875 23.25C8.84766 23.1093 9.01562 23.0703 9.18359 23.0898C9.35156 23.1211 9.52344 23.2187 9.6875 23.3398C9.91797 23.6093 10.1719 23.8593 10.4453 24.0898C12.1602 25.6406 14.7695 25.8593 16.707 24.5703C17.1719 24.289 17.5938 23.9492 17.9453 23.5703C18.9922 22.4218 19.375 20.8515 18.2422 19.1992C18.0977 18.9101 18.0977 18.6211 18.3164 18.3281C18.4961 18.1093 18.7695 18.0195 19.0508 18.0312C19.8438 18.2187 20.5273 18.6015 21.168 19.0586C21.4883 19.2812 21.7969 19.5312 22.1055 19.7812C24.832 21.9492 27.1523 24.6992 28.3711 27.9492C28.5039 28.2695 28.625 28.6015 28.7422 28.9297C29.207 30.2617 29.5742 31.6289 29.9336 32.9609C30.0234 33.3203 30.1172 33.6992 30.2148 34.0898C30.6914 36.0312 31.2031 38.1484 31.2188 38.1992C31.3398 38.5703 31.418 39.0117 31.6133 39.3593C31.6797 39.4804 31.7578 39.5898 31.8555 39.6797C32.3125 40.1015 32.6836 39.7617 33 39.3593C33.043 39.3008 33.0898 39.25 33.1328 39.1914C33.5234 38.75 33.8125 38.2383 34.3438 37.9297C34.4062 37.8984 34.4688 37.8789 34.5352 37.8593C34.6016 37.8515 34.6719 37.8281 34.7422 37.8281C34.8086 37.8398 34.8672 37.8593 34.9258 37.8906C35.2148 38.039 35.4414 38.4218 35.7383 38.6015C35.793 38.6406 35.8555 38.6601 35.918 38.6797C36.0469 38.7109 36.1953 38.75 36.3438 38.8008C36.9453 38.9883 37.5977 39.3593 37.3828 40.0703C37.3672 40.1289 37.3516 40.1914 37.332 40.2383C37.2109 40.5781 36.9609 40.9218 36.793 41.2383C36.7539 41.3008 36.7188 41.3711 36.6797 41.4414C36.207 42.2304 35.5078 42.9492 34.9102 43.6914C34.7734 43.8593 34.6406 44.0312 34.5156 44.1992C33.7461 45.2304 33.0977 46.3984 32.6289 47.6406C32.4688 48.0508 32.332 48.4687 32.2148 48.8984C31.9961 49.7812 31.8281 50.6718 31.7344 51.5703C38.2812 51.5703 44.8281 51.5703 51.375 51.5703C52.8711 51.5703 53.3203 51.1211 53.3203 49.6211C53.3203 33.9687 53.3203 18.3203 53.3203 2.67966C53.3203 1.12887 52.8828 0.691374 51.3359 0.691374Z" />
        <path d="M23.9961 40.1016C23.5859 40.8203 22.543 41.0508 22.0859 41.1211C21.6289 41.1992 20.9531 41.1406 20.3242 40.9609C19.8828 40.8281 19.8477 40.5781 20.1953 40.2812C21.2422 39.3711 22.457 39.2109 23.7656 39.5195C24.0898 39.6016 24.1641 39.8086 23.9961 40.1016ZM25.6602 37.8086C22.4453 37.1406 19.8711 37.6094 17.1406 39.5703C17.4805 39.8906 18.1797 40.6406 18.6562 40.9609C19.082 41.25 20.6523 42.25 22.4492 41.8594C24.3516 41.4492 25.7539 39.6914 25.6602 37.8086Z" />
        <path d="M22.9726 32.7618C22.7344 32.7618 22.5312 32.5586 22.5273 32.3203C22.5273 32.0782 22.7305 31.8789 22.9687 31.8711C23.207 31.8711 23.414 32.0782 23.414 32.3086C23.418 32.5508 23.2109 32.7618 22.9726 32.7618ZM25.3906 31.1211C24.8008 31.5 24.3281 31.5196 23.9023 31.1797C23.4726 30.8282 23.3906 30.3594 23.6484 29.6602C22.707 29.5899 21.8711 30.1289 21.5664 31.0118C21.2578 31.8789 21.5781 32.8516 22.3398 33.3594C23.1133 33.8907 24.1406 33.8203 24.8359 33.1993C25.4414 32.6602 25.6953 31.711 25.3906 31.1211Z" />
        <path d="M15.4609 35.0508C15.1836 35.0508 14.957 34.8086 14.9609 34.539C14.9649 34.2617 15.1992 34.0312 15.4727 34.039C15.7461 34.039 15.9766 34.2812 15.9727 34.5508C15.9688 34.8281 15.7344 35.0586 15.4609 35.0508ZM18.2305 33.2305C17.6602 33.6719 17.0586 33.7617 16.4922 33.2812C15.9336 32.8086 15.9258 32.2109 16.2422 31.5781C15.293 31.4687 14.3399 32.0195 13.9492 32.9101C13.5352 33.8398 13.7734 34.8984 14.5391 35.5703C15.2969 36.2305 16.4063 36.3203 17.2539 35.7812C18.1133 35.2383 18.5039 34.2383 18.2305 33.2305Z" />
        <path d="M83.168 19.2695H74.1367V0.628906H67.5391V24.9883H83.168" />
        <path d="M96.6641 15.5781H104.746V10.1992H96.6641V6.35156H106.406V0.628906H90.0664V24.9883H106.711V19.2695H96.6641" />
        <path d="M122.977 7.35938C123.293 6.87109 123.742 6.48828 124.332 6.23047C124.918 5.96875 125.684 5.83984 126.633 5.83984C126.945 5.83984 127.297 5.85938 127.68 5.89062C127.676 5.92969 127.668 5.96875 127.664 6.01172C127.605 6.60156 127.578 7.23828 127.578 7.94141V13.7891H121.594L122.336 9.32812C122.449 8.51172 122.66 7.85938 122.977 7.35938ZM120.723 19.0312H127.578V24.9883H134.176V6.82031C134.176 6.37109 134.18 5.80078 134.191 5.10938C134.203 4.42969 134.227 3.73828 134.258 3.07031C134.293 2.39062 134.344 1.83984 134.41 1.41016L134.344 1C133.465 0.800781 132.438 0.640625 131.266 0.53125C130.094 0.421875 129.012 0.359375 128.02 0.359375C126.395 0.359375 124.906 0.46875 123.555 0.699219C122.199 0.929688 121 1.35156 119.949 1.96875C118.902 2.58984 118.035 3.46875 117.348 4.60938C116.656 5.75 116.156 7.23828 115.84 9.08984L113.137 24.9883H119.73" />
        <path d="M157.613 14.7695C157.344 15.6992 156.938 16.4883 156.395 17.1602C155.855 17.8203 155.168 18.3398 154.332 18.7109C153.496 19.0781 152.508 19.2695 151.355 19.2695H149.023V6.35156H152.031C154.219 6.35156 155.766 6.82812 156.668 7.78906C157.566 8.73828 158.02 10.0781 158.02 11.7891C158.02 12.8516 157.887 13.8516 157.613 14.7695ZM163.973 16.8008C164.492 15.1992 164.75 13.5 164.75 11.6914C164.75 8.14844 163.684 5.42188 161.555 3.51172C159.426 1.58984 156.25 0.628906 152.031 0.628906H142.426V24.9883H151.02C153.453 24.9883 155.535 24.6406 157.258 23.9414C158.984 23.2383 160.402 22.2695 161.52 21.0391C162.637 19.8203 163.453 18.3984 163.973 16.8008Z" />
        <path d="M178.969 19.2695L188.395 5.57031C188.754 5.05078 189.043 4.53906 189.258 4.05078C189.469 3.55078 189.578 2.98828 189.578 2.35938C189.578 2.17969 189.555 1.96094 189.512 1.69922C189.465 1.44141 189.418 1.21094 189.375 1L189.004 0.628906H170.434V6.35156H180.57L171.176 20.0508C170.816 20.5703 170.527 21.0703 170.312 21.5703C170.102 22.0703 169.992 22.6289 169.992 23.2617C169.992 23.4414 170.012 23.6602 170.043 23.8984C170.078 24.1484 170.117 24.3906 170.16 24.6094L170.566 24.9883H189.68V19.2695" />
        <path d="M75.7578 42.4414L69.9102 33.2188H67.4297V51.6094H70.3945V39.0195L74.7383 45.8086H76.7305L81.0977 38.9883V51.6094H84.0352V33.2188H81.5859" />
        <path d="M101.535 46.1484C101.078 47.1719 100.422 47.9492 99.5703 48.4805C98.7188 49.0195 97.6953 49.2891 96.5039 49.2891C95.3125 49.2891 94.2891 49.0195 93.4375 48.4805C92.5859 47.9492 91.9297 47.1719 91.4727 46.1484C91.0117 45.1211 90.7812 43.8789 90.7812 42.4219C90.7812 40.9492 91.0117 39.7109 91.4727 38.6914C91.9297 37.6602 92.5859 36.8906 93.4375 36.3516C94.2891 35.8086 95.3125 35.5391 96.5039 35.5391C97.6953 35.5391 98.7188 35.8086 99.5703 36.3516C100.422 36.8906 101.078 37.6602 101.535 38.6914C101.996 39.7109 102.227 40.9492 102.227 42.4219C102.227 43.8789 101.996 45.1211 101.535 46.1484ZM101.203 34.1094C99.8945 33.3086 98.3281 32.9102 96.5039 32.9102C94.6836 32.9102 93.1133 33.3086 91.8047 34.1094C90.4922 34.9102 89.4883 36.0312 88.7891 37.4609C88.0898 38.8906 87.7422 40.5391 87.7422 42.4219C87.7422 44.2891 88.0898 45.9414 88.7891 47.3711C89.4883 48.8008 90.4883 49.9219 91.7891 50.7188C93.0937 51.5195 94.6641 51.9219 96.5039 51.9219C98.3281 51.9219 99.8945 51.5195 101.203 50.7188C102.516 49.9219 103.52 48.8008 104.219 47.3711C104.918 45.9414 105.266 44.2891 105.266 42.4219C105.266 40.5391 104.918 38.8906 104.219 37.4609C103.52 36.0312 102.516 34.9102 101.203 34.1094Z" />
        <path d="M120.34 42.6094L111.371 33.2188H108.945V51.6094H111.91V37.8281L120.34 46.6484V51.6094H123.305V33.2188H120.34" />
        <path d="M137.418 42.8789C136.73 42.5 135.934 42.2383 135.031 42.0781L132.938 41.6992C131.949 41.5312 131.187 41.25 130.648 40.8398C130.113 40.4414 129.844 39.7617 129.844 38.7891C129.844 38 130.051 37.3711 130.469 36.8906C130.887 36.3984 131.461 36.0508 132.195 35.8203C132.926 35.6016 133.762 35.4883 134.699 35.4883C135.586 35.4883 136.359 35.5781 137.023 35.7617C137.688 35.9414 138.242 36.1406 138.684 36.3594H138.891V33.6484C138.41 33.4297 137.809 33.25 137.074 33.1211C136.34 32.9805 135.602 32.9102 134.852 32.9102C133.199 32.9102 131.785 33.1289 130.609 33.5586C129.438 34 128.527 34.6602 127.891 35.5586C127.254 36.4492 126.934 37.5703 126.934 38.9219C126.934 40.0117 127.148 40.9102 127.586 41.6406C128.02 42.3594 128.609 42.9297 129.359 43.3516C130.105 43.7695 130.961 44.0508 131.914 44.1992L134.035 44.5898C134.938 44.7617 135.609 45.0117 136.051 45.3281C136.496 45.6484 136.719 46.1914 136.719 46.9414C136.719 47.5508 136.547 48.0312 136.203 48.3711C135.867 48.7109 135.387 48.9609 134.773 49.1094C134.16 49.2617 133.453 49.3398 132.656 49.3398C131.938 49.3398 131.262 49.2891 130.621 49.1914C129.984 49.0781 129.398 48.9492 128.859 48.7812C128.324 48.6094 127.852 48.4102 127.441 48.1914H127.215V50.9688C127.656 51.1406 128.16 51.3008 128.73 51.4492C129.305 51.5898 129.922 51.7109 130.586 51.7891C131.25 51.8789 131.938 51.9219 132.656 51.9219C133.691 51.9219 134.633 51.8203 135.477 51.6094C136.32 51.4102 137.055 51.1016 137.676 50.6797C138.297 50.2617 138.777 49.7383 139.117 49.1016C139.461 48.4609 139.629 47.6992 139.629 46.8398C139.629 45.8594 139.434 45.0586 139.039 44.4102C138.648 43.7617 138.109 43.25 137.418 42.8789Z" />
        <path d="M141.16 35.8008H146.961V51.6094H149.898V35.8008H155.699V33.2188H141.16" />
        <path d="M161.32 43.3086H168.754V40.8086H161.32V35.8008H170.16V33.2188H158.355V51.6094H170.441V49.0312H161.32" />
        <path d="M177.031 43.7695V35.75H180.836C181.859 35.75 182.688 36.0195 183.312 36.5703C183.945 37.1094 184.262 37.9609 184.262 39.1211C184.262 39.9414 184.109 40.6992 183.812 41.4102C183.516 42.1094 183.059 42.6797 182.445 43.1211C181.832 43.5508 181.059 43.7695 180.121 43.7695H177.031ZM185.078 44.4688C185.758 43.8516 186.301 43.0898 186.699 42.1914C187.102 41.2812 187.301 40.25 187.301 39.1016C187.301 37.8516 187.047 36.7891 186.535 35.9102C186.023 35.0391 185.297 34.3711 184.352 33.9102C183.402 33.4492 182.258 33.2188 180.914 33.2188H174.066V51.6094H177.031V46.3789H180.07C180.355 46.3789 180.637 46.3594 180.914 46.3281L184.898 51.6094H188.27V51.4883L183.586 45.5117C184.121 45.2305 184.621 44.8906 185.078 44.4688Z" />
    </svg>
    <symbol id="svg-complete" width="14" height="10" viewBox="0 0 14 10" xmlns="http://www.w3.org/2000/svg">
        <path d="M13.5899 2.34785L6.20434 9.59727C5.65743 10.1342 4.77025 10.1342 4.22283 9.59727L0.410339 5.85454C-0.13678 5.31757 -0.13678 4.44659 0.410339 3.90952C0.957561 3.37234 1.84467 3.37234 2.39165 3.90931L5.21388 6.67974L11.6083 0.402726C12.1555 -0.134445 13.0427 -0.134039 13.5897 0.402726C14.1367 0.939796 14.1367 1.81047 13.5899 2.34785Z" fill="white" />
    </symbol>
    <symbol id="svg-arrow-right" viewBox="0 0 9 13" xmlns="http://www.w3.org/2000/svg" fill="none">
        <path d="M1.85205 1.08459L6.88164 6.09868L1.85205 11.1128" stroke-width="2" stroke-linecap="round" />
    </symbol>
    <symbol id="svg-check" viewBox="0 0 4 4" xmlns="http://www.w3.org/2000/svg">
        <path d="M3.88283 1.44436L1.77267 3.64637C1.61641 3.80948 1.36293 3.80948 1.20652 3.64637L0.11724 2.50952C-0.0390799 2.34641 -0.0390799 2.08185 0.11724 1.91872C0.273589 1.75555 0.527048 1.75555 0.683328 1.91865L1.48968 2.76017L3.31666 0.853529C3.47301 0.690363 3.72649 0.690487 3.88278 0.853529C4.03906 1.01666 4.03906 1.28113 3.88283 1.44436Z" fill="white" />
    </symbol>

</svg>